<svg width="114" height="42" viewBox="0 0 114 42" fill="none" xmlns="http://www.w3.org/2000/svg">
<rect x="24" y="6" width="90" height="27" fill="#198754"/>
<path d="M2.28516 33V7.40625H11.25C14.3555 7.40625 16.7109 8.00391 18.3164 9.19922C19.9219 10.3828 20.7246 12.123 20.7246 14.4199C20.7246 15.6738 20.4023 16.7812 19.7578 17.7422C19.1133 18.6914 18.2168 19.3887 17.0684 19.834C18.3809 20.1621 19.4121 20.8242 20.1621 21.8203C20.9238 22.8164 21.3047 24.0352 21.3047 25.4766C21.3047 27.9375 20.5195 29.8008 18.9492 31.0664C17.3789 32.332 15.1406 32.9766 12.2344 33H2.28516ZM7.55859 21.8555V28.7637H12.0762C13.3184 28.7637 14.2852 28.4707 14.9766 27.8848C15.6797 27.2871 16.0312 26.4668 16.0312 25.4238C16.0312 23.0801 14.8184 21.8906 12.3926 21.8555H7.55859ZM7.55859 18.1289H11.4609C14.1211 18.082 15.4512 17.0215 15.4512 14.9473C15.4512 13.7871 15.1113 12.9551 14.4316 12.4512C13.7637 11.9355 12.7031 11.6777 11.25 11.6777H7.55859V18.1289Z" fill="#198754"/>
<path d="M37.2031 33C37.0156 32.625 36.8633 31.957 36.7461 30.9961C35.2344 32.5664 33.4297 33.3516 31.332 33.3516C29.457 33.3516 27.916 32.8242 26.709 31.7695C25.5137 30.7031 24.916 29.3555 24.916 27.7266C24.916 25.7461 25.666 24.2109 27.166 23.1211C28.6777 22.0195 30.7988 21.4688 33.5293 21.4688H36.6934V19.9746C36.6934 18.8379 36.3535 17.9355 35.6738 17.2676C34.9941 16.5879 33.9922 16.248 32.668 16.248C31.5078 16.248 30.5352 16.541 29.75 17.127C28.9648 17.7129 28.5723 18.4219 28.5723 19.2539H25.3027C25.3027 18.3047 25.6367 17.3906 26.3047 16.5117C26.9844 15.6211 27.8984 14.918 29.0469 14.4023C30.207 13.8867 31.4785 13.6289 32.8613 13.6289C35.0527 13.6289 36.7695 14.1797 38.0117 15.2812C39.2539 16.3711 39.8984 17.877 39.9453 19.7988V28.5527C39.9453 30.2988 40.168 31.6875 40.6133 32.7188V33H37.2031ZM31.8066 30.5215C32.8262 30.5215 33.793 30.2578 34.707 29.7305C35.6211 29.2031 36.2832 28.5176 36.6934 27.6738V23.7715H34.1445C30.1602 23.7715 28.168 24.9375 28.168 27.2695C28.168 28.2891 28.5078 29.0859 29.1875 29.6602C29.8672 30.2344 30.7402 30.5215 31.8066 30.5215ZM48.1191 13.9805L48.2246 16.3711C49.6777 14.543 51.5762 13.6289 53.9199 13.6289C57.9395 13.6289 59.9668 15.8965 60.002 20.4316V33H56.75V20.4141C56.7383 19.043 56.4219 18.0293 55.8008 17.373C55.1914 16.7168 54.2363 16.3887 52.9355 16.3887C51.8809 16.3887 50.9551 16.6699 50.1582 17.2324C49.3613 17.7949 48.7402 18.5332 48.2949 19.4473V33H45.043V13.9805H48.1191ZM70.2148 24.1934L68.1758 26.3203V33H64.9238V6H68.1758V22.3301L69.916 20.2383L75.8398 13.9805H79.7949L72.3945 21.9258L80.6562 33H76.8418L70.2148 24.1934ZM86.6855 33H83.4336V13.9805H86.6855V33ZM83.1699 8.93555C83.1699 8.4082 83.3281 7.96289 83.6445 7.59961C83.9727 7.23633 84.4531 7.05469 85.0859 7.05469C85.7188 7.05469 86.1992 7.23633 86.5273 7.59961C86.8555 7.96289 87.0195 8.4082 87.0195 8.93555C87.0195 9.46289 86.8555 9.90234 86.5273 10.2539C86.1992 10.6055 85.7188 10.7812 85.0859 10.7812C84.4531 10.7812 83.9727 10.6055 83.6445 10.2539C83.3281 9.90234 83.1699 9.46289 83.1699 8.93555Z" fill="white"/>
<circle cx="100.5" cy="19.5" r="12.5" fill="white"/>
<path d="M94.8848 20.5967L93.8652 21.6602V25H92.2393V11.5H93.8652V19.665L94.7354 18.6191L97.6973 15.4902H99.6748L95.9746 19.4629L100.105 25H98.1982L94.8848 20.5967ZM100.791 20.166C100.791 18.6836 101.134 17.5059 101.819 16.6328C102.505 15.7539 103.413 15.3145 104.544 15.3145C105.704 15.3145 106.609 15.7246 107.26 16.5449L107.339 15.4902H108.824V24.7715C108.824 26.002 108.458 26.9717 107.726 27.6807C106.999 28.3896 106.021 28.7441 104.79 28.7441C104.104 28.7441 103.434 28.5977 102.777 28.3047C102.121 28.0117 101.62 27.6104 101.274 27.1006L102.118 26.125C102.815 26.9863 103.668 27.417 104.676 27.417C105.467 27.417 106.082 27.1943 106.521 26.749C106.967 26.3037 107.189 25.6768 107.189 24.8682V24.0508C106.539 24.8008 105.651 25.1758 104.526 25.1758C103.413 25.1758 102.511 24.7275 101.819 23.8311C101.134 22.9346 100.791 21.7129 100.791 20.166ZM102.426 20.3506C102.426 21.4229 102.646 22.2666 103.085 22.8818C103.524 23.4912 104.14 23.7959 104.931 23.7959C105.956 23.7959 106.709 23.3301 107.189 22.3984V18.0566C106.691 17.1484 105.944 16.6943 104.948 16.6943C104.157 16.6943 103.539 17.002 103.094 17.6172C102.648 18.2324 102.426 19.1436 102.426 20.3506Z" fill="#198754"/>
</svg>
