<svg width="907" height="374" viewBox="0 0 907 374" fill="none" xmlns="http://www.w3.org/2000/svg">
<path d="M231.48 273V84.36H290.52C309.72 84.36 325.56 87.912 338.04 95.016C350.52 101.928 356.76 113.832 356.76 130.728C356.76 139.752 354.456 148.104 349.848 155.784C345.24 163.464 338.712 168.744 330.264 171.624V172.776C341.016 175.08 349.848 179.976 356.76 187.464C363.672 194.76 367.128 204.84 367.128 217.704C367.128 236.52 360.312 250.44 346.68 259.464C333.24 268.488 316.056 273 295.128 273H231.48ZM261.72 162.984H287.064C301.272 162.984 311.544 160.488 317.88 155.496C324.216 150.504 327.384 143.688 327.384 135.048C327.384 125.256 324.024 118.344 317.304 114.312C310.584 110.088 300.792 107.976 287.928 107.976H261.72V162.984ZM261.72 249.384H291.672C306.264 249.384 317.496 246.696 325.368 241.32C333.432 235.944 337.464 227.592 337.464 216.264C337.464 195.912 322.2 185.736 291.672 185.736H261.72V249.384ZM442.8 252.84C448.752 252.84 454.32 251.4 459.504 248.52C464.88 245.64 470.448 241.608 476.208 236.424V202.152C455.472 204.84 441.072 208.776 433.008 213.96C424.944 219.144 420.912 225.576 420.912 233.256C420.912 240.168 423.024 245.16 427.248 248.232C431.472 251.304 436.656 252.84 442.8 252.84ZM433.584 276.456C421.296 276.456 411.312 272.712 403.632 265.224C395.952 257.736 392.112 247.848 392.112 235.56C392.112 220.392 398.736 208.68 411.984 200.424C425.424 191.976 446.832 186.216 476.208 183.144C476.016 175.08 474 168.072 470.16 162.12C466.512 155.976 459.6 152.904 449.424 152.904C441.936 152.904 434.736 154.344 427.824 157.224C421.104 159.912 414.768 163.176 408.816 167.016L397.584 147.144C404.88 142.344 413.424 138.12 423.216 134.472C433.008 130.632 443.472 128.712 454.608 128.712C472.272 128.712 485.232 133.992 493.488 144.552C501.936 154.92 506.16 169.608 506.16 188.616V273H481.392L479.088 256.872H478.224C471.696 262.248 464.688 266.856 457.2 270.696C449.904 274.536 442.032 276.456 433.584 276.456ZM547.263 273V132.168H572.031L574.335 151.464H575.199C581.727 145.128 588.735 139.752 596.223 135.336C603.711 130.92 612.255 128.712 621.855 128.712C636.831 128.712 647.775 133.512 654.687 143.112C661.599 152.712 665.055 166.44 665.055 184.296V273H635.103V188.04C635.103 175.944 633.183 167.304 629.343 162.12C625.695 156.936 619.743 154.344 611.487 154.344C604.959 154.344 599.103 155.976 593.919 159.24C588.927 162.504 583.359 167.208 577.215 173.352V273H547.263ZM707.013 273V69.096H736.389V200.136H737.253L792.261 132.168H825.093L776.997 189.192L830.277 273H797.733L760.005 209.64L736.389 236.712V273H707.013ZM869.652 105.96C864.084 105.96 859.476 104.328 855.828 101.064C852.18 97.608 850.356 93.384 850.356 88.392C850.356 83.016 852.18 78.792 855.828 75.72C859.476 72.456 864.084 70.824 869.652 70.824C875.028 70.824 879.54 72.456 883.188 75.72C886.836 78.792 888.66 83.016 888.66 88.392C888.66 93.384 886.836 97.608 883.188 101.064C879.54 104.328 875.028 105.96 869.652 105.96ZM854.388 273V132.168H884.34V273H854.388Z" fill="white"/>
<path d="M0.832458 154.195L60.2042 129.042V277H0.832458V154.195Z" fill="#3CB371"/>
<path d="M63.9738 127.6L135.597 97V277H63.9738V127.6Z" fill="#4D4D4D"/>
<path d="M207.22 127.6L135.597 97V277H207.22V127.6Z" fill="#3CB371"/>
</svg>
